<svg width="44" height="44" viewBox="0 0 44 44" fill="none" xmlns="http://www.w3.org/2000/svg">
<path fill-rule="evenodd" clip-rule="evenodd" d="M11.0001 6C9.95286 6 9.08294 6.80786 9.00558 7.85225L7.00557 34.8523C6.91968 36.0119 7.83734 37 9.00011 37H35.6929C36.8556 37 37.7733 36.0119 37.6874 34.8523L35.6874 7.85226C35.61 6.80787 34.7401 6 33.6929 6H11.0001ZM14.8301 10.0435C13.7579 10.0435 12.8765 10.889 12.8318 11.9602L12.3246 24.1341C12.2772 25.2704 13.1856 26.2174 14.3229 26.2174H30.3701C31.5073 26.2174 32.4157 25.2704 32.3684 24.1341L31.8611 11.9602C31.8165 10.889 30.9351 10.0435 29.8629 10.0435H14.8301ZM14.9334 30.9348C14.9334 32.0514 14.0283 32.9565 12.9117 32.9565C11.7951 32.9565 10.89 32.0514 10.89 30.9348C10.89 29.8182 11.7951 28.913 12.9117 28.913C14.0283 28.913 14.9334 29.8182 14.9334 30.9348ZM31.7813 32.9565C32.8978 32.9565 33.803 32.0514 33.803 30.9348C33.803 29.8182 32.8978 28.913 31.7813 28.913C30.6647 28.913 29.7595 29.8182 29.7595 30.9348C29.7595 32.0514 30.6647 32.9565 31.7813 32.9565Z" fill="white"/>
</svg>
