<svg width="44" height="44" viewBox="0 0 44 44" fill="none" xmlns="http://www.w3.org/2000/svg">
<path fill-rule="evenodd" clip-rule="evenodd" d="M14.4075 10C13.3603 10 12.4903 10.8079 12.413 11.8523L11.0056 30.8523C10.9196 32.0118 11.8373 33 13.0001 33H31.6928C32.8556 33 33.7733 32.0118 33.6873 30.8523L32.2799 11.8523C32.2026 10.8079 31.3327 10 30.2854 10H14.4075ZM17.2649 13C16.1927 13 15.3112 13.8455 15.2666 14.9167L14.9333 22.9167C14.8859 24.053 15.7943 25 16.9315 25H27.7614C28.8986 25 29.807 24.053 29.7597 22.9167L29.4263 14.9167C29.3817 13.8455 28.5003 13 27.4281 13H17.2649ZM16.8465 28.5C16.8465 29.3284 16.1749 30 15.3465 30C14.518 30 13.8465 29.3284 13.8465 28.5C13.8465 27.6716 14.518 27 15.3465 27C16.1749 27 16.8465 27.6716 16.8465 28.5ZM29.3465 30C30.1749 30 30.8465 29.3284 30.8465 28.5C30.8465 27.6716 30.1749 27 29.3465 27C28.518 27 27.8465 27.6716 27.8465 28.5C27.8465 29.3284 28.518 30 29.3465 30Z" fill="white"/>
</svg>
