<svg width="44" height="44" viewBox="0 0 44 44" fill="none" xmlns="http://www.w3.org/2000/svg">
<path d="M37 34L7 34" stroke="white" stroke-width="4" stroke-linecap="round"/>
<circle cx="7" cy="34" r="5" fill="white"/>
<circle cx="37" cy="34" r="5" fill="white"/>
<path fill-rule="evenodd" clip-rule="evenodd" d="M17.9281 17.5H15.9378C14.3982 17.5 13.436 19.1666 14.2057 20.5L20.2679 31C21.0377 32.3334 22.9623 32.3334 23.732 31L29.7942 20.5C30.564 19.1666 29.6018 17.5 28.0622 17.5H26.0719L26.2368 18.2776C26.4164 19.1241 25.5087 19.7837 24.759 19.3513L22.4996 18.0482C22.1904 17.8699 21.8096 17.8699 21.5004 18.0482L19.241 19.3513C18.4913 19.7837 17.5836 19.1241 17.7632 18.2776L17.9281 17.5Z" fill="white"/>
<path fill-rule="evenodd" clip-rule="evenodd" d="M22 24C27.5228 24 32 19.5228 32 14C32 8.47717 27.5228 4 22 4C16.4772 4 12 8.47717 12 14C12 19.5228 16.4772 24 22 24ZM23.9752 10.4313L22.9134 8.04907C22.561 7.25854 21.439 7.25854 21.0866 8.04907L20.0248 10.4313C19.8794 10.7573 19.5714 10.9812 19.2164 11.0187L16.6226 11.2924C15.7619 11.3832 15.4152 12.4503 16.058 13.0297L17.9955 14.7758C18.2607 15.0148 18.3784 15.377 18.3044 15.7261L17.7632 18.2776C17.5836 19.1241 18.4913 19.7837 19.241 19.3513L21.5004 18.0482C21.8096 17.8699 22.1904 17.8699 22.4996 18.0482L24.759 19.3513C25.5087 19.7837 26.4164 19.1241 26.2368 18.2776L25.6956 15.7261C25.6216 15.377 25.7393 15.0148 26.0045 14.7758L27.942 13.0297C28.5848 12.4503 28.2381 11.3832 27.3774 11.2924L24.7836 11.0187C24.4286 10.9812 24.1206 10.7573 23.9752 10.4313Z" fill="white"/>
</svg>
