<svg width="44" height="44" viewBox="0 0 44 44" fill="none" xmlns="http://www.w3.org/2000/svg">
<path fill-rule="evenodd" clip-rule="evenodd" d="M17.9281 21.5H15.9378C14.3982 21.5 13.436 23.1666 14.2057 24.5L20.2679 35C21.0377 36.3334 22.9623 36.3334 23.732 35L29.7942 24.5C30.564 23.1666 29.6018 21.5 28.0622 21.5H26.0719L26.2368 22.2776C26.4164 23.1241 25.5087 23.7837 24.759 23.3513L22.4996 22.0482C22.1904 21.8699 21.8096 21.8699 21.5004 22.0482L19.241 23.3513C18.4913 23.7837 17.5836 23.1241 17.7632 22.2776L17.9281 21.5Z" fill="white"/>
<path fill-rule="evenodd" clip-rule="evenodd" d="M22 28C27.5228 28 32 23.5228 32 18C32 12.4772 27.5228 8 22 8C16.4772 8 12 12.4772 12 18C12 23.5228 16.4772 28 22 28ZM23.9752 14.4313L22.9134 12.0491C22.561 11.2585 21.439 11.2585 21.0866 12.0491L20.0248 14.4313C19.8794 14.7573 19.5714 14.9812 19.2164 15.0187L16.6226 15.2924C15.7619 15.3832 15.4152 16.4503 16.058 17.0297L17.9955 18.7758C18.2607 19.0148 18.3784 19.377 18.3044 19.7261L17.7632 22.2776C17.5836 23.1241 18.4913 23.7837 19.241 23.3513L21.5004 22.0482C21.8096 21.8699 22.1904 21.8699 22.4996 22.0482L24.759 23.3513C25.5087 23.7837 26.4164 23.1241 26.2368 22.2776L25.6956 19.7261C25.6216 19.377 25.7393 19.0148 26.0045 18.7758L27.942 17.0297C28.5848 16.4503 28.2381 15.3832 27.3774 15.2924L24.7836 15.0187C24.4286 14.9812 24.1206 14.7573 23.9752 14.4313Z" fill="white"/>
</svg>
